<svg xmlns="http://www.w3.org/2000/svg" width="1440" height="628" fill="none" viewBox="0 0 1440 628">
  <g clip-path="url(#a)">
    <path fill="#171717" d="M0 0h1440v628H0z"/>
    <path fill="#23272A" d="m403.877 241.464-89.795 671.067-547.541-442.601 637.336-228.466Z"/>
    <path fill="#8A2BFF" d="M64.692 310.421-57.63-355.485l657.647 251.392L64.692 310.421Z"/>
    <path fill="#23272A" d="m739.984 227.116 468.656-488.627 180.64 680.491-649.296-191.864ZM97.953 242.652-34.945-421.224l661.562 240.901L97.953 242.652Z"/>
    <path fill="#8A2BFF" d="m1037.08-215.904 125.88 474.194L654.994 91.846l382.086-307.75Z"/>
    <path fill="#23272A" d="M667.091 966.619 634.05 290.378l618.55 336.286-585.509 339.955Z"/>
    <path fill="#8A2BFF" d="m549.319 446.364 431.03 234.341-469.938 254.729 38.908-489.07Zm-867.479 122.74 640.187-220.35-150.411 687.806-489.776-467.456Z"/>
  </g>
  <defs>
    <clipPath id="a">
      <path fill="#fff" d="M0 0h1440v628H0z"/>
    </clipPath>
  </defs>
</svg>
